<svg width="25" height="24" viewBox="0 0 25 24" fill="none" xmlns="http://www.w3.org/2000/svg">
<path fill-rule="evenodd" clip-rule="evenodd" d="M12.667 0C6.03699 0 0.666992 5.37 0.666992 12C0.666992 17.31 4.10199 21.795 8.87199 23.385C9.47199 23.49 9.69699 23.13 9.69699 22.815C9.69699 22.53 9.68199 21.585 9.68199 20.58C6.66699 21.135 5.88699 19.845 5.64699 19.17C5.51199 18.825 4.92699 17.76 4.41699 17.475C3.99699 17.25 3.39699 16.695 4.40199 16.68C5.34699 16.665 6.02199 17.55 6.24699 17.91C7.32699 19.725 9.05199 19.215 9.74199 18.9C9.84699 18.12 10.162 17.595 10.507 17.295C7.83699 16.995 5.04699 15.96 5.04699 11.37C5.04699 10.065 5.51199 8.985 6.27699 8.145C6.15699 7.845 5.73699 6.615 6.39699 4.965C6.39699 4.965 7.40199 4.65 9.69699 6.195C10.657 5.925 11.677 5.79 12.697 5.79C13.717 5.79 14.737 5.925 15.697 6.195C17.992 4.635 18.997 4.965 18.997 4.965C19.657 6.615 19.237 7.845 19.117 8.145C19.882 8.985 20.347 10.05 20.347 11.37C20.347 15.975 17.542 16.995 14.872 17.295C15.307 17.67 15.682 18.39 15.682 19.515C15.682 21.12 15.667 22.41 15.667 22.815C15.667 23.13 15.892 23.505 16.492 23.385C18.8742 22.5808 20.9443 21.0498 22.4107 19.0074C23.8772 16.9651 24.6663 14.5143 24.667 12C24.667 5.37 19.297 0 12.667 0Z" fill="white"/>
</svg>
