<svg width="25" height="24" viewBox="0 0 25 24" fill="none" xmlns="http://www.w3.org/2000/svg">
<path d="M22.5564 0H2.10488C1.1252 0 0.333008 0.773438 0.333008 1.72969V22.2656C0.333008 23.2219 1.1252 24 2.10488 24H22.5564C23.5361 24 24.333 23.2219 24.333 22.2703V1.72969C24.333 0.773438 23.5361 0 22.5564 0ZM7.45332 20.4516H3.89082V8.99531H7.45332V20.4516ZM5.67207 7.43438C4.52832 7.43438 3.60488 6.51094 3.60488 5.37187C3.60488 4.23281 4.52832 3.30937 5.67207 3.30937C6.81113 3.30937 7.73457 4.23281 7.73457 5.37187C7.73457 6.50625 6.81113 7.43438 5.67207 7.43438ZM20.7846 20.4516H17.2268V14.8828C17.2268 13.5562 17.2033 11.8453 15.3752 11.8453C13.5236 11.8453 13.2424 13.2937 13.2424 14.7891V20.4516H9.68926V8.99531H13.1018V10.5609H13.1486C13.6221 9.66094 14.7846 8.70938 16.5143 8.70938C20.1189 8.70938 20.7846 11.0813 20.7846 14.1656V20.4516Z" fill="white"/>
</svg>
